<svg xmlns="http://www.w3.org/2000/svg" width="1200" height="630" viewBox="0 0 1200 630"><defs><linearGradient id="p" x2="1" y2="1"><stop stop-color="#4c4943"/><stop offset="1" stop-color="#151919"/></linearGradient><radialGradient id="g"><stop stop-color="#ff6a4938"/><stop offset="1" stop-color="#10111200"/></radialGradient></defs><rect width="1200" height="630" fill="#101112"/><ellipse cx="903" cy="335" rx="290" ry="290" fill="url(#g)"/><circle cx="66" cy="72" r="5" fill="#ff795b"/><text x="86" y="77" fill="#aaa69e" font-family="Arial,sans-serif" font-size="14" letter-spacing="2">SOFTWARE ENGINEER / INDIA</text><text x="60" y="244" fill="#f3eee7" font-family="Arial,sans-serif" font-size="91" font-weight="600" letter-spacing="-6">Himanshu</text><text x="60" y="336" fill="#f3eee7" font-family="Arial,sans-serif" font-size="91" font-weight="600" letter-spacing="-6">Sharma<tspan fill="#ff795b">.</tspan></text><text x="65" y="410" fill="#f3eee7" font-family="Arial,sans-serif" font-size="24">I build the parts you see.</text><text x="65" y="445" fill="#a7a29b" font-family="Arial,sans-serif" font-size="24">And the systems you don’t.</text><text x="65" y="563" fill="#a7a29b" font-family="Arial,sans-serif" font-size="15">Backend + full-stack</text><text x="1025" y="563" fill="#a7a29b" font-family="Arial,sans-serif" font-size="13" text-anchor="end">devhimanshu.space</text><g transform="translate(665 55) scale(.77)"><ellipse cx="300" cy="585" rx="220" ry="30" fill="#000" opacity=".3"/><g transform="translate(0 270)"><path d="M300 32 540 170 300 307 60 170Z" fill="url(#p)" stroke="#817968"/><path d="m60 170 240 137 240-137v14L300 322 60 184Z" fill="#333a35"/><path d="m156 175 145 83 147-84m-220-39 73 42 78-43m-78 43v81" fill="none" stroke="#7bddd5" stroke-width="2"/><path d="m179 164 29-16 30 16-30 17Z m64 37 29-16 30 16-30 17Z m64 37 29-16 30 16-30 17Z" fill="#7bddd5"/></g><g transform="translate(0 134)"><path d="M300 32 540 170 300 307 60 170Z" fill="url(#p)" stroke="#b57556"/><path d="m60 170 240 137 240-137v14L300 322 60 184Z" fill="#bf5639"/><path d="m300 80 160 90-160 90-160-90Z" fill="none" stroke="#ff9775" stroke-opacity=".4"/><path d="m300 125 80 45-80 45-80-45Z" fill="#ff8b64"/><path d="m300 139 55 31-55 31-55-31Z" fill="#ffbd8f"/></g><g><path d="M300 32 540 170 300 307 60 170Z" fill="url(#p)" stroke="#a49580"/><path d="m60 170 240 137 240-137v14L300 322 60 184Z" fill="#353732"/><g transform="matrix(.86 .49 -.86 .49 291 86)"><rect width="156" height="137" rx="7" fill="#1b1d1c" stroke="#bbb3a4"/><path d="M0 25h156" stroke="#716c63"/><circle cx="12" cy="13" r="3" fill="#ff805c"/><circle cx="23" cy="13" r="3" fill="#7bddd5"/><rect x="12" y="37" width="36" height="87" rx="3" fill="#343632"/><rect x="60" y="38" width="80" height="33" rx="3" fill="#7bddd5" fill-opacity=".7"/><path d="M61 86h65m-65 10h80m-80 10h47m-47 10h65" stroke="#a6a89b" stroke-width="3"/></g></g></g></svg>
